<svg xmlns="http://www.w3.org/2000/svg" width="200" height="70" viewBox="0 0 200 70">
  <g transform="translate(50, 10)">
    <path d="M50,25 C50,38.8071187 38.8071187,50 25,50 C11.1928813,50 0,38.8071187 0,25 C0,11.1928813 11.1928813,0 25,0 C38.8071187,0 50,11.1928813 50,25" fill="#00A7E1"/>
    <path d="M37.5,12.5 C37.5,26.3071187 26.3071187,37.5 12.5,37.5 C-1.30711875,37.5 -12.5,26.3071187 -12.5,12.5 C-12.5,-1.30711875 -1.30711875,-12.5 12.5,-12.5 C26.3071187,-12.5 37.5,-1.30711875 37.5,12.5" fill="#E6007E"/>
    <path d="M37.5,37.5 C37.5,51.3071187 26.3071187,62.5 12.5,62.5 C-1.30711875,62.5 -12.5,51.3071187 -12.5,37.5 C-12.5,23.6928813 -1.30711875,12.5 12.5,12.5 C26.3071187,12.5 37.5,23.6928813 37.5,37.5" fill="#FFB612"/>
    <path d="M62.5,37.5 C62.5,51.3071187 51.3071187,62.5 37.5,62.5 C23.6928813,62.5 12.5,51.3071187 12.5,37.5 C12.5,23.6928813 23.6928813,12.5 37.5,12.5 C51.3071187,12.5 62.5,23.6928813 62.5,37.5" fill="#95C11F"/>
  </g>
</svg>